<?xml version="1.0" encoding="UTF-8" standalone="no"?><svg xmlns="http://www.w3.org/2000/svg" xmlns:xlink="http://www.w3.org/1999/xlink" contentScriptType="application/ecmascript" contentStyleType="text/css" height="565px" preserveAspectRatio="none" style="width:1243px;height:565px;background:#FFFFFF;" version="1.1" viewBox="0 0 1243 565" width="1243px" zoomAndPan="magnify"><defs/><g><rect fill="#FEFECE" height="72.5313" style="stroke:#A80036;stroke-width:1.5;" width="102" x="519.5" y="7"/><text fill="#000000" font-family="sans-serif" font-size="12" lengthAdjust="spacing" textLength="41" x="550" y="20.1387">vhkost</text><line style="stroke:#A80036;stroke-width:1.5;" x1="520.5" x2="620.5" y1="24.9688" y2="24.9688"/><text fill="#000000" font-family="sans-serif" font-size="10" lengthAdjust="spacing" textLength="90" x="525.5" y="38.251">oblacnost  = 0.336</text><text fill="#000000" font-family="sans-serif" font-size="10" lengthAdjust="spacing" textLength="84" x="525.5" y="49.8916">srazky     = 0.168</text><text fill="#000000" font-family="sans-serif" font-size="10" lengthAdjust="spacing" textLength="84" x="525.5" y="61.5322">teplota    = 0.113</text><text fill="#000000" font-family="sans-serif" font-size="10" lengthAdjust="spacing" textLength="85" x="525.5" y="73.1729">vhkost     = 0.612</text><path d="M657,16 L657,39.5 L621.54,43.5 L657,47.5 L657,71.3984 A0,0 0 0 0 657,71.3984 L1236,71.3984 A0,0 0 0 0 1236,71.3984 L1236,26 L1226,16 L657,16 A0,0 0 0 0 657,16 " fill="#FFFFFF" style="stroke:#A80036;stroke-width:1.0;"/><path d="M1226,16 L1226,26 L1236,26 L1226,16 " fill="#FFFFFF" style="stroke:#A80036;stroke-width:1.0;"/><text fill="#000000" font-family="sans-serif" font-size="13" lengthAdjust="spacing" textLength="550" x="663" y="33.0669">1: oblacnost[polojasno], srazky[slabe],   teplota[nizka],   vhkost[mala] R =&gt; {'Q'} FAIL</text><text fill="#000000" font-family="sans-serif" font-size="13" lengthAdjust="spacing" textLength="558" x="663" y="48.1997">2:  oblacnost[zatazeno], srazky[vydatne], teplota[stredni], vhkost[mala] Q =&gt; {'Q'} OK</text><text fill="#000000" font-family="sans-serif" font-size="13" lengthAdjust="spacing" textLength="555" x="663" y="63.3325">3:  oblacnost[zatazeno], srazky[vydatne], teplota[nizka],   vhkost[mala] Q =&gt; {'Q'} OK</text><rect fill="#FEFECE" height="60.8906" style="stroke:#A80036;stroke-width:1.5;" width="102" x="381.5" y="157"/><text fill="#000000" font-family="sans-serif" font-size="12" lengthAdjust="spacing" textLength="38" x="413.5" y="170.1387">srazky</text><line style="stroke:#A80036;stroke-width:1.5;" x1="382.5" x2="482.5" y1="174.9688" y2="174.9688"/><text fill="#000000" font-family="sans-serif" font-size="10" lengthAdjust="spacing" textLength="90" x="387.5" y="188.251">oblacnost  = 0.126</text><text fill="#000000" font-family="sans-serif" font-size="10" lengthAdjust="spacing" textLength="84" x="387.5" y="199.8916">srazky     = 0.252</text><text fill="#000000" font-family="sans-serif" font-size="10" lengthAdjust="spacing" textLength="84" x="387.5" y="211.5322">teplota    = 0.252</text><rect fill="#FEFECE" height="49.25" style="stroke:#A80036;stroke-width:1.5;" width="102" x="221.5" y="295"/><text fill="#000000" font-family="sans-serif" font-size="12" lengthAdjust="spacing" textLength="62" x="241.5" y="308.1387">oblacnost</text><line style="stroke:#A80036;stroke-width:1.5;" x1="222.5" x2="322.5" y1="312.9688" y2="312.9688"/><text fill="#000000" font-family="sans-serif" font-size="10" lengthAdjust="spacing" textLength="90" x="227.5" y="326.251">oblacnost  = 0.500</text><text fill="#000000" font-family="sans-serif" font-size="10" lengthAdjust="spacing" textLength="84" x="227.5" y="337.8916">teplota    = 0.500</text><rect fill="#FEFECE" height="37.6094" style="stroke:#A80036;stroke-width:1.5;" width="96" x="69.5" y="421"/><text fill="#000000" font-family="sans-serif" font-size="12" lengthAdjust="spacing" textLength="45" x="95" y="434.1387">teplota</text><line style="stroke:#A80036;stroke-width:1.5;" x1="70.5" x2="164.5" y1="438.9688" y2="438.9688"/><text fill="#000000" font-family="sans-serif" font-size="10" lengthAdjust="spacing" textLength="84" x="75.5" y="452.251">teplota    = 1.000</text><rect fill="#FEFECE" height="60.8906" style="stroke:#A80036;stroke-width:1.5;" width="102" x="647.5" y="157"/><text fill="#000000" font-family="sans-serif" font-size="12" lengthAdjust="spacing" textLength="62" x="667.5" y="170.1387">oblacnost</text><line style="stroke:#A80036;stroke-width:1.5;" x1="648.5" x2="748.5" y1="174.9688" y2="174.9688"/><text fill="#000000" font-family="sans-serif" font-size="10" lengthAdjust="spacing" textLength="90" x="653.5" y="188.251">oblacnost  = 0.918</text><text fill="#000000" font-family="sans-serif" font-size="10" lengthAdjust="spacing" textLength="84" x="653.5" y="199.8916">srazky     = 0.918</text><text fill="#000000" font-family="sans-serif" font-size="10" lengthAdjust="spacing" textLength="84" x="653.5" y="211.5322">teplota    = 0.252</text><!--MD5=[08abe0a4cf295deba0dfb70c5150fe22]
class q1--><rect codeLine="51" fill="#FEFECE" height="23.9688" id="q1" style="stroke:#A80036;stroke-width:1.5;" width="31" x="417" y="307.5"/><text fill="#000000" font-family="sans-serif" font-size="12" lengthAdjust="spacing" textLength="25" x="420" y="323.6387">{Q}</text><!--MD5=[c62900aa54cd41ed919dabf149de7d71]
class q2--><rect codeLine="55" fill="#FEFECE" height="23.9688" id="q2" style="stroke:#A80036;stroke-width:1.5;" width="31" x="7" y="536"/><text fill="#000000" font-family="sans-serif" font-size="12" lengthAdjust="spacing" textLength="25" x="10" y="552.1387">{Q}</text><!--MD5=[e27ef68d06588bafe85e430b4c0d5f2a]
class q3--><rect codeLine="56" fill="#FEFECE" height="23.9688" id="q3" style="stroke:#A80036;stroke-width:1.5;" width="31" x="102" y="536"/><text fill="#000000" font-family="sans-serif" font-size="12" lengthAdjust="spacing" textLength="25" x="105" y="552.1387">{Q}</text><!--MD5=[0ed29c833d0f8ec9c304e2c967637b58]
class q4--><rect codeLine="57" fill="#FEFECE" height="23.9688" id="q4" style="stroke:#A80036;stroke-width:1.5;" width="31" x="257" y="428"/><text fill="#000000" font-family="sans-serif" font-size="12" lengthAdjust="spacing" textLength="25" x="260" y="444.1387">{Q}</text><!--MD5=[bbfff9d093615065fa65cfc7bea67662]
class r1--><rect codeLine="58" fill="#FEFECE" height="23.9688" id="r1" style="stroke:#A80036;stroke-width:1.5;" width="30" x="224.5" y="536"/><text fill="#000000" font-family="sans-serif" font-size="12" lengthAdjust="spacing" textLength="24" x="227.5" y="552.1387">{R}</text><!--MD5=[a3f3d41611a1678f584b218be37bc854]
class r2--><rect codeLine="59" fill="#FEFECE" height="23.9688" id="r2" style="stroke:#A80036;stroke-width:1.5;" width="30" x="386.5" y="428"/><text fill="#000000" font-family="sans-serif" font-size="12" lengthAdjust="spacing" textLength="24" x="389.5" y="444.1387">{R}</text><!--MD5=[e5c8251ac567c27e68d440bb2a008c14]
class s1--><rect codeLine="67" fill="#FEFECE" height="23.9688" id="s1" style="stroke:#A80036;stroke-width:1.5;" width="30" x="562.5" y="307.5"/><text fill="#000000" font-family="sans-serif" font-size="12" lengthAdjust="spacing" textLength="24" x="565.5" y="323.6387">{S}</text><!--MD5=[b4f4966602871d2c15a160168b857c4b]
class s2--><rect codeLine="68" fill="#FEFECE" height="23.9688" id="s2" style="stroke:#A80036;stroke-width:1.5;" width="30" x="693.5" y="307.5"/><text fill="#000000" font-family="sans-serif" font-size="12" lengthAdjust="spacing" textLength="24" x="696.5" y="323.6387">{S}</text><!--MD5=[fde93659fbe76c1155e9c356f034527b]
class r3--><rect codeLine="69" fill="#FEFECE" height="23.9688" id="r3" style="stroke:#A80036;stroke-width:1.5;" width="30" x="830.5" y="307.5"/><text fill="#000000" font-family="sans-serif" font-size="12" lengthAdjust="spacing" textLength="24" x="833.5" y="323.6387">{R}</text><!--MD5=[b9ec78865f291cc9f38d54f4ad9e3dcc]
link v to s--><path codeLine="48" d="M519.29,71.34 C502.61,81.81 484.95,94.93 471.5,110 C460.62,122.19 451.9,137.96 445.5,152.02 " fill="none" id="v-to-s" style="stroke:#A80036;stroke-width:1.0;"/><polygon fill="#A80036" points="443.41,156.71,450.7167,150.106,445.438,152.1398,443.4043,146.8611,443.41,156.71" style="stroke:#A80036;stroke-width:1.0;"/><text fill="#000000" font-family="sans-serif" font-size="13" lengthAdjust="spacing" textLength="156" x="472.5" y="123.0669">mala {4, 5, 6, 9, 10, 12}</text><!--MD5=[4bc400e32d32666131783dd09c471891]
link v to o2--><path codeLine="49" d="M608.53,80.09 C618.22,89.58 628.45,99.98 637.5,110 C649.68,123.48 662.33,139.04 672.93,152.6 " fill="none" id="v-to-o2" style="stroke:#A80036;stroke-width:1.0;"/><polygon fill="#A80036" points="676.15,156.74,673.7748,147.1819,673.0773,152.7955,667.4636,152.0981,676.15,156.74" style="stroke:#A80036;stroke-width:1.0;"/><text fill="#000000" font-family="sans-serif" font-size="13" lengthAdjust="spacing" textLength="101" x="653.5" y="123.0669">velka {7, 8, 11}</text><!--MD5=[8eadf9cb81167e971c6e0c95f0013606]
link s to o1--><path codeLine="52" d="M381.4,201.75 C354.66,210.93 323.09,225.62 301.5,248 C290.45,259.45 283.39,275.7 279,289.71 " fill="none" id="s-to-o1" style="stroke:#A80036;stroke-width:1.0;"/><polygon fill="#A80036" points="277.5,294.76,283.8806,287.2575,278.9131,289.9639,276.2068,284.9964,277.5,294.76" style="stroke:#A80036;stroke-width:1.0;"/><text fill="#000000" font-family="sans-serif" font-size="13" lengthAdjust="spacing" textLength="118" x="302.5" y="261.0669">slabe {4, 5, 6, 10}</text><!--MD5=[89e79828533a48b750a705ce75a7bee8]
link s to q1--><path codeLine="53" d="M430.4,218.29 C429.64,232.44 429.07,249.59 429.5,265 C429.85,277.51 430.66,291.65 431.35,302.25 " fill="none" id="s-to-q1" style="stroke:#A80036;stroke-width:1.0;"/><polygon fill="#A80036" points="431.7,307.44,435.0995,298.1964,431.3712,302.4508,427.1168,298.7225,431.7,307.44" style="stroke:#A80036;stroke-width:1.0;"/><text fill="#000000" font-family="sans-serif" font-size="13" lengthAdjust="spacing" textLength="103" x="430.5" y="261.0669">vydatne {9, 12}</text><!--MD5=[c598908c68cf0f30c1eaa77e46c15851]
link o1 to t--><path codeLine="60" d="M221.45,332.63 C196.29,340.8 167.02,353.85 146.5,374 C134.88,385.41 127.54,402.31 123.15,416.01 " fill="none" id="o1-to-t" style="stroke:#A80036;stroke-width:1.0;"/><polygon fill="#A80036" points="121.66,420.9,128.108,413.4553,123.1164,416.1168,120.4549,411.1251,121.66,420.9" style="stroke:#A80036;stroke-width:1.0;"/><text fill="#000000" font-family="sans-serif" font-size="13" lengthAdjust="spacing" textLength="113" x="147.5" y="387.0669">polojasno {6, 10}</text><!--MD5=[3ddd85d056e736ce6faee44515a8741a]
link o1 to r2--><path codeLine="61" d="M322.33,344.25 C336.34,352.42 350.91,362.46 362.5,374 C376.78,388.23 387.94,408.7 394.59,422.85 " fill="none" id="o1-to-r2" style="stroke:#A80036;stroke-width:1.0;"/><polygon fill="#A80036" points="396.84,427.76,396.72,417.9119,394.7538,423.216,389.4496,421.2498,396.84,427.76" style="stroke:#A80036;stroke-width:1.0;"/><text fill="#000000" font-family="sans-serif" font-size="13" lengthAdjust="spacing" textLength="78" x="377.5" y="387.0669">oblacno {4}</text><!--MD5=[5298f9d05ba8baaf1cb7dfe63ecb6a32]
link o1 to q4--><path codeLine="62" d="M270.61,344.32 C269.75,357.98 269.01,375.45 269.5,391 C269.83,401.6 270.57,413.51 271.24,422.81 " fill="none" id="o1-to-q4" style="stroke:#A80036;stroke-width:1.0;"/><polygon fill="#A80036" points="271.61,427.95,274.9567,418.6872,271.2527,422.9628,266.9772,419.2588,271.61,427.95" style="stroke:#A80036;stroke-width:1.0;"/><text fill="#000000" font-family="sans-serif" font-size="13" lengthAdjust="spacing" textLength="87" x="270.5" y="387.0669">zatazeno {5}</text><!--MD5=[76d542f9fdc1d0c6fce8250a29bee241]
link t to q2--><path codeLine="63" d="M86.41,459.1 C74.44,467.15 61.3,477.43 51.5,489 C40.93,501.48 33.02,518.47 28.15,530.83 " fill="none" id="t-to-q2" style="stroke:#A80036;stroke-width:1.0;"/><polygon fill="#A80036" points="26.25,535.82,33.1812,528.823,28.0228,531.1448,25.701,525.9865,26.25,535.82" style="stroke:#A80036;stroke-width:1.0;"/><text fill="#000000" font-family="sans-serif" font-size="13" lengthAdjust="spacing" textLength="53" x="52.5" y="502.0669">nizka {}</text><!--MD5=[443cc18be3b7c7d01fe1713dfa32e4a7]
link t to r1--><path codeLine="64" d="M157.16,459.17 C171.78,467.04 187.85,477.18 200.5,489 C213.49,501.14 224.39,518.39 231.33,530.92 " fill="none" id="t-to-r1" style="stroke:#A80036;stroke-width:1.0;"/><polygon fill="#A80036" points="233.89,535.63,233.1165,525.8116,231.5067,531.2345,226.0838,529.6248,233.89,535.63" style="stroke:#A80036;stroke-width:1.0;"/><text fill="#000000" font-family="sans-serif" font-size="13" lengthAdjust="spacing" textLength="72" x="215.5" y="502.0669">stredni {6}</text><!--MD5=[d58614fceddcacf1e3a2fb2bd910c35e]
link t to q3--><path codeLine="65" d="M115.85,459.21 C114.87,472.24 113.92,490.2 114.5,506 C114.79,514.07 115.42,523.02 116.02,530.49 " fill="none" id="t-to-q3" style="stroke:#A80036;stroke-width:1.0;"/><polygon fill="#A80036" points="116.47,535.88,119.7088,526.5789,116.0548,530.8973,111.7364,527.2433,116.47,535.88" style="stroke:#A80036;stroke-width:1.0;"/><text fill="#000000" font-family="sans-serif" font-size="13" lengthAdjust="spacing" textLength="80" x="115.5" y="502.0669">vysoka {10}</text><!--MD5=[814b65becbaeb59495a3a07ac1565bc7]
link o2 to s1--><path codeLine="70" d="M647.03,212.95 C631.73,222.2 616,233.95 604.5,248 C591.37,264.03 584.16,287.16 580.56,302.5 " fill="none" id="o2-to-s1" style="stroke:#A80036;stroke-width:1.0;"/><polygon fill="#A80036" points="579.48,307.38,585.342,299.4657,580.5677,302.4997,577.5336,297.7254,579.48,307.38" style="stroke:#A80036;stroke-width:1.0;"/><text fill="#000000" font-family="sans-serif" font-size="13" lengthAdjust="spacing" textLength="89" x="605.5" y="261.0669">polojasno {7}</text><!--MD5=[eed4b06a675ab5ae3d3d4738a0f13eef]
link o2 to r3--><path codeLine="71" d="M749.74,209.33 C769.16,219.01 790.44,231.97 806.5,248 C822.15,263.63 833.35,286.85 839.62,302.32 " fill="none" id="o2-to-r3" style="stroke:#A80036;stroke-width:1.0;"/><polygon fill="#A80036" points="841.56,307.24,841.994,297.4007,839.7326,302.5859,834.5474,300.3245,841.56,307.24" style="stroke:#A80036;stroke-width:1.0;"/><text fill="#000000" font-family="sans-serif" font-size="13" lengthAdjust="spacing" textLength="78" x="819.5" y="261.0669">oblacno {8}</text><!--MD5=[f0bc58d7cd514fb36bc9867a6ea32a44]
link o2 to s2--><path codeLine="72" d="M700.79,218.32 C702.8,244.34 705.62,281.1 707.24,302.1 " fill="none" id="o2-to-s2" style="stroke:#A80036;stroke-width:1.0;"/><polygon fill="#A80036" points="707.64,307.33,710.9339,298.0483,707.2543,302.3449,702.9577,298.6653,707.64,307.33" style="stroke:#A80036;stroke-width:1.0;"/><text fill="#000000" font-family="sans-serif" font-size="13" lengthAdjust="spacing" textLength="95" x="705.5" y="261.0669">zatazeno {11}</text><!--MD5=[7fda1406f61757e74ab2e0755a9c76e6]
@startuml ID3 Decision Tree 1
hide circle
skinparam shadowing false
skinparam noteShadowing false
skinparam NoteBackgroundColor white
hide empty members
hide empty methods

object "vhkost" as v
object v {
    oblacnost  = 0.336
    srazky     = 0.168
    teplota    = 0.113
    vhkost     = 0.612
}

note right
1: oblacnost[polojasno], srazky[slabe],   teplota[nizka],   vhkost[mala] R => {'Q'} FAIL
2:  oblacnost[zatazeno], srazky[vydatne], teplota[stredni], vhkost[mala] Q => {'Q'} OK
3:  oblacnost[zatazeno], srazky[vydatne], teplota[nizka],   vhkost[mala] Q => {'Q'} OK
end note

object "srazky" as s
object s {
    oblacnost  = 0.126
    srazky     = 0.252
    teplota    = 0.252
}

object "oblacnost" as o1
object o1 {
    oblacnost  = 0.500
    teplota    = 0.500
}

object "teplota" as t
object t {
    teplota    = 1.000
}

object "oblacnost" as o2
object o2 {
    oblacnost  = 0.918
    srazky     = 0.918
    teplota    = 0.252
}


v - -> s  : mala {4, 5, 6, 9, 10, 12}
v - -> o2 : velka {7, 8, 11}

class "{Q}" as q1
s - -> o1 : slabe {4, 5, 6, 10}
s - -> q1 :  vydatne {9, 12}

class "{Q}" as q2
class "{Q}" as q3
class "{Q}" as q4
class "{R}" as r1
class "{R}" as r2
o1 - -> t : polojasno {6, 10}
o1 - -> r2 : oblacno {4}
o1 - -> q4 : zatazeno {5}
t - -> q2 : nizka {}
t - -> r1 : stredni {6}
t - -> q3 : vysoka {10}

class "{S}" as s1
class "{S}" as s2
class "{R}" as r3
o2 - -> s1 : polojasno {7}
o2 - -> r3 : oblacno {8}
o2 - -> s2 : zatazeno {11}

@enduml

PlantUML version 1.2022.0(Tue Jan 11 17:16:42 CET 2022)
(GPL source distribution)
Java Runtime: OpenJDK Runtime Environment
JVM: OpenJDK 64-Bit Server VM
Default Encoding: UTF-8
Language: en
Country: US
--></g></svg>