<?xml version="1.0" encoding="UTF-8" standalone="no"?><svg xmlns="http://www.w3.org/2000/svg" xmlns:xlink="http://www.w3.org/1999/xlink" contentScriptType="application/ecmascript" contentStyleType="text/css" height="450px" preserveAspectRatio="none" style="width:1015px;height:450px;background:#FFFFFF;" version="1.1" viewBox="0 0 1015 450" width="1015px" zoomAndPan="magnify"><defs/><g><rect fill="#FEFECE" height="72.5313" style="stroke:#A80036;stroke-width:1.5;" width="102" x="275" y="7"/><text fill="#000000" font-family="sans-serif" font-size="12" lengthAdjust="spacing" textLength="62" x="295" y="20.1387">oblacnost</text><line style="stroke:#A80036;stroke-width:1.5;" x1="276" x2="376" y1="24.9688" y2="24.9688"/><text fill="#000000" font-family="sans-serif" font-size="10" lengthAdjust="spacing" textLength="90" x="281" y="38.251">oblacnost  = 0.780</text><text fill="#000000" font-family="sans-serif" font-size="10" lengthAdjust="spacing" textLength="84" x="281" y="49.8916">srazky     = 0.270</text><text fill="#000000" font-family="sans-serif" font-size="10" lengthAdjust="spacing" textLength="84" x="281" y="61.5322">teplota    = 0.419</text><text fill="#000000" font-family="sans-serif" font-size="10" lengthAdjust="spacing" textLength="82" x="281" y="73.1729">vhkost    = 0.404</text><path d="M412,16 L412,39.5 L377,43.5 L412,47.5 L412,71.3984 A0,0 0 0 0 412,71.3984 L1008,71.3984 A0,0 0 0 0 1008,71.3984 L1008,26 L998,16 L412,16 A0,0 0 0 0 412,16 " fill="#FFFFFF" style="stroke:#A80036;stroke-width:1.0;"/><path d="M998,16 L998,26 L1008,26 L998,16 " fill="#FFFFFF" style="stroke:#A80036;stroke-width:1.0;"/><text fill="#000000" font-family="sans-serif" font-size="13" lengthAdjust="spacing" textLength="566" x="418" y="33.0669">10: oblacnost[polojasno],   srazky[slabe], teplota[vysoka],  vhkost[mala] Q =&gt; {'S'} FAIL</text><text fill="#000000" font-family="sans-serif" font-size="13" lengthAdjust="spacing" textLength="558" x="418" y="48.1997">11:  oblacnost[zatazeno],   srazky[slabe],  teplota[nizka], vhkost[velka] S =&gt; {'Q'} FAIL</text><text fill="#000000" font-family="sans-serif" font-size="13" lengthAdjust="spacing" textLength="575" x="418" y="63.3325">12: oblacnost[polojasno], srazky[vydatne], teplota[vysoka],  vhkost[mala] Q =&gt; {'S'} FAIL</text><rect fill="#FEFECE" height="60.8906" style="stroke:#A80036;stroke-width:1.5;" width="96" x="80" y="157"/><text fill="#000000" font-family="sans-serif" font-size="12" lengthAdjust="spacing" textLength="45" x="105.5" y="170.1387">teplota</text><line style="stroke:#A80036;stroke-width:1.5;" x1="81" x2="175" y1="174.9688" y2="174.9688"/><text fill="#000000" font-family="sans-serif" font-size="10" lengthAdjust="spacing" textLength="84" x="86" y="188.251">srazky     = 0.000</text><text fill="#000000" font-family="sans-serif" font-size="10" lengthAdjust="spacing" textLength="84" x="86" y="199.8916">teplota    = 0.918</text><text fill="#000000" font-family="sans-serif" font-size="10" lengthAdjust="spacing" textLength="82" x="86" y="211.5322">vhkost    = 0.918</text><!--MD5=[bbfff9d093615065fa65cfc7bea67662]
class r1--><rect codeLine="30" fill="#FEFECE" height="23.9688" id="r1" style="stroke:#A80036;stroke-width:1.5;" width="30" x="7" y="307.5"/><text fill="#000000" font-family="sans-serif" font-size="12" lengthAdjust="spacing" textLength="24" x="10" y="323.6387">{R}</text><!--MD5=[a3f3d41611a1678f584b218be37bc854]
class r2--><rect codeLine="31" fill="#FEFECE" height="23.9688" id="r2" style="stroke:#A80036;stroke-width:1.5;" width="30" x="110" y="307.5"/><text fill="#000000" font-family="sans-serif" font-size="12" lengthAdjust="spacing" textLength="24" x="113" y="323.6387">{R}</text><!--MD5=[e5c8251ac567c27e68d440bb2a008c14]
class s1--><rect codeLine="32" fill="#FEFECE" height="23.9688" id="s1" style="stroke:#A80036;stroke-width:1.5;" width="30" x="224" y="307.5"/><text fill="#000000" font-family="sans-serif" font-size="12" lengthAdjust="spacing" textLength="24" x="227" y="323.6387">{S}</text><rect fill="#FEFECE" height="60.8906" style="stroke:#A80036;stroke-width:1.5;" width="96" x="305" y="157"/><text fill="#000000" font-family="sans-serif" font-size="12" lengthAdjust="spacing" textLength="38" x="334" y="170.1387">srazky</text><line style="stroke:#A80036;stroke-width:1.5;" x1="306" x2="400" y1="174.9688" y2="174.9688"/><text fill="#000000" font-family="sans-serif" font-size="10" lengthAdjust="spacing" textLength="84" x="311" y="188.251">srazky     = 0.252</text><text fill="#000000" font-family="sans-serif" font-size="10" lengthAdjust="spacing" textLength="84" x="311" y="199.8916">teplota    = 0.252</text><text fill="#000000" font-family="sans-serif" font-size="10" lengthAdjust="spacing" textLength="82" x="311" y="211.5322">vhkost    = 0.252</text><!--MD5=[fde93659fbe76c1155e9c356f034527b]
class r3--><rect codeLine="43" fill="#FEFECE" height="23.9688" id="r3" style="stroke:#A80036;stroke-width:1.5;" width="30" x="338" y="307.5"/><text fill="#000000" font-family="sans-serif" font-size="12" lengthAdjust="spacing" textLength="24" x="341" y="323.6387">{R}</text><rect fill="#FEFECE" height="49.25" style="stroke:#A80036;stroke-width:1.5;" width="96" x="409" y="295"/><text fill="#000000" font-family="sans-serif" font-size="12" lengthAdjust="spacing" textLength="45" x="434.5" y="308.1387">teplota</text><line style="stroke:#A80036;stroke-width:1.5;" x1="410" x2="504" y1="312.9688" y2="312.9688"/><text fill="#000000" font-family="sans-serif" font-size="10" lengthAdjust="spacing" textLength="84" x="415" y="326.251">teplota    = 1.000</text><text fill="#000000" font-family="sans-serif" font-size="10" lengthAdjust="spacing" textLength="82" x="415" y="337.8916">vhkost    = 1.000</text><!--MD5=[71c75df8d879eddc0a01e00c715868b0]
class r4--><rect codeLine="52" fill="#FEFECE" height="23.9688" id="r4" style="stroke:#A80036;stroke-width:1.5;" width="30" x="328" y="421"/><text fill="#000000" font-family="sans-serif" font-size="12" lengthAdjust="spacing" textLength="24" x="331" y="437.1387">{R}</text><!--MD5=[08abe0a4cf295deba0dfb70c5150fe22]
class q1--><rect codeLine="53" fill="#FEFECE" height="23.9688" id="q1" style="stroke:#A80036;stroke-width:1.5;" width="31" x="441.5" y="421"/><text fill="#000000" font-family="sans-serif" font-size="12" lengthAdjust="spacing" textLength="25" x="444.5" y="437.1387">{Q}</text><!--MD5=[c62900aa54cd41ed919dabf149de7d71]
class q2--><rect codeLine="54" fill="#FEFECE" height="23.9688" id="q2" style="stroke:#A80036;stroke-width:1.5;" width="31" x="544.5" y="421"/><text fill="#000000" font-family="sans-serif" font-size="12" lengthAdjust="spacing" textLength="25" x="547.5" y="437.1387">{Q}</text><!--MD5=[e27ef68d06588bafe85e430b4c0d5f2a]
class q3--><rect codeLine="60" fill="#FEFECE" height="23.9688" id="q3" style="stroke:#A80036;stroke-width:1.5;" width="31" x="462.5" y="175.5"/><text fill="#000000" font-family="sans-serif" font-size="12" lengthAdjust="spacing" textLength="25" x="465.5" y="191.6387">{Q}</text><!--MD5=[29e516c513f88e92860237e3ef7170df]
link o to t1--><path codeLine="28" d="M274.82,62.84 C247.93,73.97 215.38,89.92 190,110 C174.8,122.02 160.91,138.39 150.14,152.91 " fill="none" id="o-to-t1" style="stroke:#A80036;stroke-width:1.0;"/><polygon fill="#A80036" points="147.19,156.95,155.7206,152.0276,150.1326,152.9076,149.2526,147.3196,147.19,156.95" style="stroke:#A80036;stroke-width:1.0;"/><text fill="#000000" font-family="sans-serif" font-size="13" lengthAdjust="spacing" textLength="121" x="191" y="123.0669">polojasno {1, 6, 7}</text><!--MD5=[1cef6058c8f0a2a6f89fba0bcb5b6da6]
link t1 to r1--><path codeLine="33" d="M81.68,218.02 C70.59,226.68 59.5,236.85 51,248 C38.38,264.55 30.32,287.36 25.98,302.5 " fill="none" id="t1-to-r1" style="stroke:#A80036;stroke-width:1.0;"/><polygon fill="#A80036" points="24.65,307.32,30.9001,299.7084,25.9801,302.5002,23.1883,297.5802,24.65,307.32" style="stroke:#A80036;stroke-width:1.0;"/><text fill="#000000" font-family="sans-serif" font-size="13" lengthAdjust="spacing" textLength="61" x="52" y="261.0669">nizka {1}</text><!--MD5=[fe82411c467d4399a396825978524c4f]
link t1 to r2--><path codeLine="34" d="M124.42,218.12 C123.43,227.64 122.49,238.25 122,248 C121.62,255.55 121.79,257.45 122,265 C122.35,277.51 123.16,291.65 123.85,302.25 " fill="none" id="t1-to-r2" style="stroke:#A80036;stroke-width:1.0;"/><polygon fill="#A80036" points="124.2,307.44,127.5995,298.1964,123.8712,302.4508,119.6168,298.7225,124.2,307.44" style="stroke:#A80036;stroke-width:1.0;"/><text fill="#000000" font-family="sans-serif" font-size="13" lengthAdjust="spacing" textLength="72" x="123" y="261.0669">stredni {6}</text><!--MD5=[1df09f6e89881c65d744749efc40347f]
link t1 to s1--><path codeLine="35" d="M169.3,218.17 C180.05,227.03 191.09,237.27 200,248 C214.05,264.92 225.55,287.65 232.34,302.67 " fill="none" id="t1-to-s1" style="stroke:#A80036;stroke-width:1.0;"/><polygon fill="#A80036" points="234.45,307.45,234.4557,297.6011,232.422,302.8798,227.1433,300.846,234.45,307.45" style="stroke:#A80036;stroke-width:1.0;"/><text fill="#000000" font-family="sans-serif" font-size="13" lengthAdjust="spacing" textLength="72" x="213" y="261.0669">vysoka {7}</text><!--MD5=[0441d4577109a2838a2750a02dae8c21]
link o to s--><path codeLine="44" d="M320.56,80.24 C319.39,94.9 319.42,111.94 323,127 C325.02,135.48 328.45,144.13 332.28,152.1 " fill="none" id="o-to-s" style="stroke:#A80036;stroke-width:1.0;"/><polygon fill="#A80036" points="334.71,156.97,334.2879,147.1302,332.4853,152.4922,327.1234,150.6896,334.71,156.97" style="stroke:#A80036;stroke-width:1.0;"/><text fill="#000000" font-family="sans-serif" font-size="13" lengthAdjust="spacing" textLength="110" x="324" y="123.0669">oblacno {4, 8, 9}</text><!--MD5=[b328bcb4e300b7751a681b2e35aff7f7]
link s to r3--><path codeLine="45" d="M350.9,218.29 C350.14,232.44 349.57,249.59 350,265 C350.35,277.51 351.16,291.65 351.85,302.25 " fill="none" id="s-to-r3" style="stroke:#A80036;stroke-width:1.0;"/><polygon fill="#A80036" points="352.2,307.44,355.5995,298.1964,351.8712,302.4508,347.6168,298.7225,352.2,307.44" style="stroke:#A80036;stroke-width:1.0;"/><text fill="#000000" font-family="sans-serif" font-size="13" lengthAdjust="spacing" textLength="62" x="351" y="261.0669">slabe {4}</text><!--MD5=[b54fb3875b24f88c1aab4847f0f451b6]
link s to t2--><path codeLine="55" d="M389.47,218.08 C399.38,227.09 409.67,237.43 418,248 C428.1,260.82 437.1,276.6 443.89,289.97 " fill="none" id="s-to-t2" style="stroke:#A80036;stroke-width:1.0;"/><polygon fill="#A80036" points="446.3,294.78,445.8654,284.9407,444.0697,290.305,438.7054,288.5093,446.3,294.78" style="stroke:#A80036;stroke-width:1.0;"/><text fill="#000000" font-family="sans-serif" font-size="13" lengthAdjust="spacing" textLength="95" x="431" y="261.0669">vydatne {8, 9}</text><!--MD5=[d4c9114766f0dd3033a28bb1affb48a6]
link t2 to q1--><path codeLine="56" d="M455.05,344.32 C454.17,357.98 453.43,375.45 454,391 C454.29,399.07 454.92,408.02 455.52,415.49 " fill="none" id="t2-to-q1" style="stroke:#A80036;stroke-width:1.0;"/><polygon fill="#A80036" points="455.97,420.88,459.2088,411.5789,455.5548,415.8973,451.2364,412.2433,455.97,420.88" style="stroke:#A80036;stroke-width:1.0;"/><text fill="#000000" font-family="sans-serif" font-size="13" lengthAdjust="spacing" textLength="61" x="455" y="387.0669">nizka {9}</text><!--MD5=[c79501c26dfa1b92a1dc88d67712751b]
link t2 to q2--><path codeLine="57" d="M488.86,344.17 C499.66,352.93 511.4,363.35 521,374 C532.76,387.05 543.69,403.89 550.97,416.06 " fill="none" id="t2-to-q2" style="stroke:#A80036;stroke-width:1.0;"/><polygon fill="#A80036" points="553.67,420.64,552.5461,410.8555,551.1312,416.3325,545.6541,414.9176,553.67,420.64" style="stroke:#A80036;stroke-width:1.0;"/><text fill="#000000" font-family="sans-serif" font-size="13" lengthAdjust="spacing" textLength="64" x="536" y="387.0669">stredni {}</text><!--MD5=[72b844c5f508e140c99927682d0b0ac3]
link t2 to r4--><path codeLine="58" d="M409.42,344.15 C396.17,352.31 382.54,362.37 372,374 C360.92,386.22 353.02,403.46 348.29,415.96 " fill="none" id="t2-to-r4" style="stroke:#A80036;stroke-width:1.0;"/><polygon fill="#A80036" points="346.58,420.67,353.4218,413.5855,348.2933,415.9727,345.9061,410.8442,346.58,420.67" style="stroke:#A80036;stroke-width:1.0;"/><text fill="#000000" font-family="sans-serif" font-size="13" lengthAdjust="spacing" textLength="72" x="373" y="387.0669">vysoka {8}</text><!--MD5=[ea8577a05821ec47c4d3fe9e5135a5d2]
link o to q3--><path codeLine="61" d="M377.13,70.48 C402.3,83.98 429.29,99.75 439,110 C455.73,127.65 466.97,153.87 472.93,170.57 " fill="none" id="o-to-q3" style="stroke:#A80036;stroke-width:1.0;"/><polygon fill="#A80036" points="474.61,175.43,475.4612,165.618,472.9818,170.7025,467.8973,168.2231,474.61,175.43" style="stroke:#A80036;stroke-width:1.0;"/><text fill="#000000" font-family="sans-serif" font-size="13" lengthAdjust="spacing" textLength="111" x="453" y="123.0669">zatazeno {2,3,5}</text><!--MD5=[362fe8a18cece3e59d132d43ff90e10b]
@startuml ID3 Decision Tree 2
hide circle
skinparam shadowing false
skinparam noteShadowing false
skinparam NoteBackgroundColor white
hide empty members
hide empty methods

object "oblacnost" as o
object o {
oblacnost  = 0.780
srazky     = 0.270
teplota    = 0.419
vhkost    = 0.404
}

note right
10: oblacnost[polojasno],   srazky[slabe], teplota[vysoka],  vhkost[mala] Q => {'S'} FAIL
11:  oblacnost[zatazeno],   srazky[slabe],  teplota[nizka], vhkost[velka] S => {'Q'} FAIL
12: oblacnost[polojasno], srazky[vydatne], teplota[vysoka],  vhkost[mala] Q => {'S'} FAIL
end note

object "teplota" as t1
object t1 {
srazky     = 0.000
teplota    = 0.918
vhkost    = 0.918
}
o - -> t1 : polojasno {1, 6, 7}

class "{R}" as r1
class "{R}" as r2
class "{S}" as s1
t1 - -> r1 : nizka {1}
t1 - -> r2 : stredni {6}
t1 - -> s1 : vysoka {7}

object "srazky" as s
object s {
srazky     = 0.252
teplota    = 0.252
vhkost    = 0.252
}
class "{R}" as r3
o - -> s : oblacno {4, 8, 9}
s - -> r3 : slabe {4}

object "teplota" as t2
object t2 {
teplota    = 1.000
vhkost    = 1.000
}
class "{R}" as r4
class "{Q}" as q1
class "{Q}" as q2
s - -> t2 : vydatne {8, 9}
t2 - -> q1 : nizka {9}
t2 - -> q2 : stredni {}
t2 - -> r4 : vysoka {8}

class "{Q}" as q3
o - -> q3 : zatazeno {2,3,5}





@enduml

PlantUML version 1.2022.0(Tue Jan 11 17:16:42 CET 2022)
(GPL source distribution)
Java Runtime: OpenJDK Runtime Environment
JVM: OpenJDK 64-Bit Server VM
Default Encoding: UTF-8
Language: en
Country: US
--></g></svg>